<?xml version="1.0" encoding="utf-8"?>
<svg version="1.1" xmlns:xlink="http://www.w3.org/1999/xlink" width="15px" height="15px" xmlns="http://www.w3.org/2000/svg">
  <g transform="matrix(1 0 0 1 -198 -271 )">
    <path d="M 4.06435643564356 4.06435643564356  C 4.31188118811881 3.81683168316832  4.43564356435644 3.51815181518152  4.43564356435644 3.16831683168317  C 4.43564356435644 2.81848184818482  4.31188118811881 2.51980198019802  4.06435643564356 2.27227722772277  C 3.81683168316832 2.02475247524753  3.51815181518152 1.9009900990099  3.16831683168317 1.9009900990099  C 2.81848184818482 1.9009900990099  2.51980198019802 2.02475247524753  2.27227722772277 2.27227722772277  C 2.02475247524752 2.51980198019802  1.9009900990099 2.81848184818482  1.9009900990099 3.16831683168317  C 1.9009900990099 3.51815181518152  2.02475247524752 3.81683168316832  2.27227722772277 4.06435643564356  C 2.51980198019802 4.31188118811881  2.81848184818482 4.43564356435644  3.16831683168317 4.43564356435644  C 3.51815181518152 4.43564356435644  3.81683168316832 4.31188118811881  4.06435643564356 4.06435643564356  Z M 14.6336633663366 7.97029702970297  C 14.8778877887789 8.22772277227723  15 8.52805280528053  15 8.87128712871287  C 15 9.22112211221122  14.8778877887789 9.51815181518152  14.6336633663366 9.76237623762376  L 9.77227722772277 14.6336633663366  C 9.51485148514852 14.8778877887789  9.21452145214522 15  8.87128712871287 15  C 8.52145214521452 15  8.22442244224423 14.8778877887789  7.98019801980198 14.6336633663366  L 0.900990099009901 7.54455445544554  C 0.65016501650165 7.3003300330033  0.437293729372937 6.96699669966997  0.262376237623762 6.54455445544555  C 0.0874587458745874 6.12211221122112  0 5.73597359735974  0 5.38613861386139  L 0 1.26732673267327  C 0 0.924092409240924  0.125412541254125 0.627062706270627  0.376237623762376 0.376237623762375  C 0.627062706270627 0.125412541254124  0.924092409240924 0  1.26732673267327 0  L 5.38613861386139 0  C 5.73597359735974 0  6.12211221122112 0.0874587458745862  6.54455445544555 0.262376237623762  C 6.96699669966997 0.437293729372936  7.3036303630363 0.650165016501648  7.55445544554455 0.900990099009901  L 14.6336633663366 7.97029702970297  Z " fill-rule="nonzero" fill="#8c8c8c" stroke="none" transform="matrix(1 0 0 1 198 271 )" />
  </g>
</svg>