<?xml version="1.0" encoding="utf-8"?>
<svg version="1.1" xmlns:xlink="http://www.w3.org/1999/xlink" width="17px" height="3px" xmlns="http://www.w3.org/2000/svg">
  <g transform="matrix(1 0 0 1 -306 -235 )">
    <path d="M 3.24758620689655 1.39636363636364  C 3.24758620689655 0.62517329478173  2.57570456250469 0  1.74689655172414 0  C 0.918088540943582 0  0.246206896551725 0.62517329478173  0.246206896551725 1.39636363636364  C 0.246206896551725 2.16755397794554  0.918088540943582 2.79272727272727  1.74689655172414 2.79272727272727  C 2.57570456250469 2.79272727272727  3.24758620689655 2.16755397794554  3.24758620689655 1.39636363636364  Z M 16.7537931034483 1.39636363636364  C 16.7537931034483 0.625173294781724  16.0819114590564 0  15.2531034482759 0  C 14.4242954374953 0  13.7524137931034 0.62517329478173  13.7524137931034 1.39636363636364  C 13.7524137931034 2.16755397794554  14.4242954374953 2.79272727272727  15.2531034482759 2.79272727272727  C 16.0819114590564 2.79272727272727  16.7537931034483 2.16755397794554  16.7537931034483 1.39636363636364  Z M 10.0006896551724 1.39636363636364  C 10.0006896551724 0.62517329478173  9.32880801078056 0  8.5 0  C 7.67119198921944 0  6.99931034482759 0.62517329478173  6.99931034482759 1.39636363636364  C 6.99931034482759 2.16755397794554  7.67119198921944 2.79272727272727  8.5 2.79272727272727  C 9.32880801078056 2.79272727272727  10.0006896551724 2.16755397794554  10.0006896551724 1.39636363636364  Z " fill-rule="nonzero" fill="#333333" stroke="none" transform="matrix(1 0 0 1 306 235 )" />
  </g>
</svg>