<?xml version="1.0" encoding="utf-8"?>
<svg version="1.1" xmlns:xlink="http://www.w3.org/1999/xlink" width="22px" height="22px" xmlns="http://www.w3.org/2000/svg">
  <g transform="matrix(1 0 0 1 -299 -233 )">
    <path d="M 21.8971428571429 15.28  L 21.8971428571429 2.9728  C 21.8971428571429 1.39382857142857  20.6628571428571 0.102857142857143  19.1542857142857 0.102857142857143  L 0.228571428571429 0.102857142857143  L 0.228571428571429 12.4100571428571  C 0.228571428571429 13.9881142857143  1.46285714285714 15.28  2.97142857142857 15.28  L 5.71428571428571 15.28  L 5.71428571428571 20.8132571428571  C 5.71402638280617 20.8222194695451  5.71389669671984 20.8311850784489  5.71389669671984 20.8401511563249  C 5.71389669671984 21.3536812962818  6.13019512819146 21.7699797277534  6.64372526814842 21.7699797277534  C 6.69222948347953 21.7699797277534  6.74065934274413 21.7661844258849  6.78857142857143 21.7586285714286  L 8 20.4914285714286  L 8.12525714285714 20.4914285714286  L 10.8342857142857 17.6571428571429  L 10.9394285714286 17.6571428571429  L 13.2114285714286 15.28  L 21.8971428571429 15.28  Z " fill-rule="nonzero" fill="#0d64ca" stroke="none" fill-opacity="0.996078431372549" transform="matrix(1 0 0 1 299 233 )" />
  </g>
</svg>