<?xml version="1.0" encoding="utf-8"?>
<svg version="1.1" xmlns:xlink="http://www.w3.org/1999/xlink" width="30px" height="30px" xmlns="http://www.w3.org/2000/svg">
  <g transform="matrix(1 0 0 1 -299 -225 )">
    <path d="M 3.18461538461538 3.18461538461538  L 26.8153846153846 3.18461538461538  L 26.8153846153846 20  L 12.0756923076923 20  L 11.2033846153846 21.1744615384615  L 8.72307692307692 23.7692307692308  L 8.72307692307692 20.2615384615385  L 3.18461538461538 20.2615384615385  L 3.18461538461538 3.18461538461538  Z M 29.7692307692308 3.12830769230769  C 29.7692307692308 1.53415384615385  28.5230769230769 0.230769230769231  27 0.23076923076923  L 3 0.23076923076923  C 1.47692307692308 0.23076923076923  0.23076923076923 1.53415384615385  0.23076923076923 3.12830769230769  L 0.23076923076923 20.3178461538462  C 0.230769230769231 21.9110769230769  1.47692307692308 23.2153846153846  3 23.2153846153846  L 5.76923076923077 23.2153846153846  L 5.76923076923077 28.8018461538461  C 5.7690411737519 28.8095694703394  5.76894636530466 28.8172948227387  5.76894636530466 28.8250204660194  C 5.76894636530466 29.3412586713661  6.18350734343705 29.761816773245  6.69969230769231 29.7692307692308  C 6.94536911880552 29.7681416996953  7.17949523669492 29.6647917419412  7.34584615384615 29.484  L 13.3384615384615 23  L 27 23  C 28.5230769230769 23.2153846153846  29.7692307692308 21.912  29.7692307692308 20.3187692307692  L 29.7692307692308 3.12830769230769  Z " fill-rule="nonzero" fill="#333333" stroke="none" transform="matrix(1 0 0 1 299 225 )" />
  </g>
</svg>