<svg class="icon" viewBox="0 0 1024 1024" version="1.1" xmlns="http://www.w3.org/2000/svg" p-id="42080" height="128" width="128"><path d="M511.8208 151.1296c-141.444267 0-320.110933 136-320.110933 277.444267l-0.042667 188.215466 0.3328 131.6736h639.9744l-0.093867-131.140266 0.046934-188.7488c0-141.444267-178.6624-277.444267-320.106667-277.444267z m384.059733 277.444267v173.0048l0.093867 125.550933c0.021333 47.1296-38.165333 85.3504-85.290667 85.376h-0.042666l-597.444267-0.042667c-47.074133 0-85.256533-38.1184-85.333333-85.1968l-0.200534-126.0032v-172.689066c0-188.573867 195.537067-341.444267 384.106667-341.444267 188.573867 0 384.110933 152.8704 384.110933 341.444267zM373.333333 876.462933h277.333334a32 32 0 1 1 0 64h-277.333334a32 32 0 1 1 0-64z" p-id="42081"></path></svg>