<?xml version="1.0" encoding="utf-8"?>
<svg version="1.1" xmlns:xlink="http://www.w3.org/1999/xlink" width="24px" height="26px" xmlns="http://www.w3.org/2000/svg">
  <g transform="matrix(1 0 0 1 -53 -7 )">
    <path d="M 21.3728750097656 10.5558750097656  C 21.3728750097656 6.412  16.1386250097656 2.427625  11.99475 2.427625  C 7.85087499023438 2.427625  2.61650000976563 6.412  2.61650000976563 10.5558750097656  L 2.61525 16.0699999902344  L 2.625 20  L 21.37425 20  L 21.3714999902344 16.0856250097656  L 21.3728750097656 10.5558750097656  Z M 11.99325 0.552624999999995  C 17.5178750097656 0.552624999999995  23.2464999902344 5.03124999999999  23.2464999902344 10.5558750097656  L 23.2464999902344 15.6243750097656  L 23.24925 19.302625  C 23.2498749902344 20.683375  22.1311250097656 21.803125  20.7504999902344 21.803875  L 20.7492500097656 21.803875  L 3.246 21.8026249902344  C 1.86687500976563 21.8026249902344  0.748250009765627 20.6858749902344  0.746000009765627 19.3066249902344  L 0.740124990234377 15.6151249902344  L 0.740124990234377 10.5558750097656  C 0.740124990234377 5.03124999999999  6.46875 0.552624999999995  11.99325 0.552624999999995  Z M 7.93749999023438 23.6776249902344  L 16.0625000097656 23.6776249902344  C 16.580266962732 23.6776249902344  17.0000000097656 24.097358037268  17.0000000097656 24.6151249902344  C 17.0000000097656 25.1328919432007  16.580266962732 25.5526249902344  16.0625000097656 25.5526249902344  L 7.93749999023438 25.5526249902344  C 7.41973303726801 25.5526249902344  6.99999999023438 25.1328919432007  6.99999999023438 24.6151249902344  C 6.99999999023438 24.097358037268  7.41973303726801 23.6776249902344  7.93749999023438 23.6776249902344  Z " fill-rule="nonzero" fill="#797979" stroke="none" transform="matrix(1 0 0 1 53 7 )" />
  </g>
</svg>