<?xml version="1.0" encoding="utf-8"?>
<svg version="1.1" xmlns:xlink="http://www.w3.org/1999/xlink" width="25px" height="25px" xmlns="http://www.w3.org/2000/svg">
  <g transform="matrix(1 0 0 1 -184 -6 )">
    <path d="M 25 12.5  C 25 5.53571428222656  19.4642857177734 0  12.5 0  C 5.53571428222656 0  0 5.53571428222656  0 12.5  C 0 19.4642857177734  5.53571428222656 25  12.5 25  C 19.4642857177734 25  25 19.4642857177734  25 12.5  Z M 23.2142857177734 12.5  C 23.2142857177734 18.3928571533203  18.3928571533203 23.2142857177734  12.5 23.2142857177734  C 6.60714284667969 23.2142857177734  1.78571428222656 18.3928571533203  1.78571428222656 12.5  C 1.78571428222656 6.60714284667969  6.60714284667969 1.78571428222656  12.5 1.78571428222656  C 18.3928571533203 1.78571428222656  23.2142857177734 6.60714284667969  23.2142857177734 12.5  Z M 18.75 12.5  C 18.75 11.9642856933594  18.3928571533203 11.6071428466797  17.8571428466797 11.6071428466797  L 13.3928571533203 11.6071428466797  L 13.3928571533203 7.14285715332031  C 13.3928571533203 6.60714287109375  13.0357143066406 6.25  12.5 6.25  C 11.9642856933594 6.25  11.6071428466797 6.60714284667969  11.6071428466797 7.14285715332031  L 11.6071428466797 11.6071428466797  L 7.14285715332031 11.6071428466797  C 6.60714287109375 11.6071428466797  6.25 11.9642856933594  6.25 12.5  C 6.25 13.0357143066406  6.60714284667969 13.3928571533203  7.14285715332031 13.3928571533203  L 11.6071428466797 13.3928571533203  L 11.6071428466797 17.8571428466797  C 11.6071428466797 18.3928571289062  11.9642856933594 18.75  12.5 18.75  C 13.0357143066406 18.75  13.3928571533203 18.3928571533203  13.3928571533203 17.8571428466797  L 13.3928571533203 13.3928571533203  L 17.8571428466797 13.3928571533203  C 18.3928571289063 13.3928571533203  18.75 13.0357143066406  18.75 12.5  Z " fill-rule="nonzero" fill="#000000" stroke="none" transform="matrix(1 0 0 1 184 6 )" />
  </g>
</svg>