<?xml version="1.0" encoding="utf-8"?>
<svg version="1.1" xmlns:xlink="http://www.w3.org/1999/xlink" width="25px" height="23px" xmlns="http://www.w3.org/2000/svg">
  <g transform="matrix(1 0 0 1 -179 -7 )">
    <path d="M 25 11.5  C 25 5.09285713964844  19.4642857177734 0  12.5 0  C 5.53571428222656 0  0 5.09285713964844  0 11.5  C 0 17.9071428603516  5.53571428222656 23  12.5 23  C 19.4642857177734 23  25 17.9071428603516  25 11.5  Z M 23.2142857177734 11.5  C 23.2142857177734 16.9214285810547  18.3928571533203 21.3571428603516  12.5 21.3571428603516  C 6.60714284667969 21.3571428603516  1.78571428222656 16.9214285810547  1.78571428222656 11.5  C 1.78571428222656 6.07857141894531  6.60714284667969 1.64285713964844  12.5 1.64285713964844  C 18.3928571533203 1.64285713964844  23.2142857177734 6.07857141894531  23.2142857177734 11.5  Z M 18.75 11.5  C 18.75 11.0071428378906  18.3928571533203 10.6785714189453  17.8571428466797 10.6785714189453  L 13.3928571533203 10.6785714189453  L 13.3928571533203 6.57142858105469  C 13.3928571533203 6.07857144140625  13.0357143066406 5.75  12.5 5.75  C 11.9642856933594 5.75  11.6071428466797 6.07857141894531  11.6071428466797 6.57142858105469  L 11.6071428466797 10.6785714189453  L 7.14285715332031 10.6785714189453  C 6.60714287109375 10.6785714189453  6.25 11.0071428378906  6.25 11.5  C 6.25 11.9928571621094  6.60714284667969 12.3214285810547  7.14285715332031 12.3214285810547  L 11.6071428466797 12.3214285810547  L 11.6071428466797 16.4285714189453  C 11.6071428466797 16.9214285585938  11.9642856933594 17.25  12.5 17.25  C 13.0357143066406 17.25  13.3928571533203 16.9214285810547  13.3928571533203 16.4285714189453  L 13.3928571533203 12.3214285810547  L 17.8571428466797 12.3214285810547  C 18.3928571289063 12.3214285810547  18.75 11.9928571621094  18.75 11.5  Z " fill-rule="nonzero" fill="#797979" stroke="none" transform="matrix(1 0 0 1 179 7 )" />
  </g>
</svg>