<?xml version="1.0" encoding="utf-8"?>
<svg version="1.1" xmlns:xlink="http://www.w3.org/1999/xlink" width="25px" height="25px" xmlns="http://www.w3.org/2000/svg">
  <g transform="matrix(1 0 0 1 -317 -8 )">
    <path d="M 24.7938461538462 23.3661538461538  L 24.7938461538462 23.3676923076923  C 24.2489981923476 18.8806365365851  21.3017479393348 15.0472945366685  17.1053846153846 13.3676923076923  C 18.8617266838327 11.9664826774816  19.8846153846154 9.84189005945793  19.8846153846154 7.5950865769086  C 19.8846153846154 3.51667611661966  16.5784104602889 0.210471192293215  12.5 0.210471192293215  C 8.42158953971106 0.210471192293215  5.11538461538462 3.51667611661966  5.11538461538462 7.5950865769086  C 5.11538461538462 9.84189005945793  6.13827331616728 11.9664826774816  7.89461538461538 13.3676923076923  C 3.6982520606652 15.0472945366685  0.751001807652397 18.8806365365851  0.206153846153846 23.3676923076923  C 0.198044875626199 23.4258073352947  0.193975749323453 23.4844147408768  0.193975749323453 23.5430927762584  C 0.193975749323453 24.2440695741206  0.762229720692061 24.8123235454892  1.46320651855422 24.8123235454892  C 2.11533537068537 24.8123235454892  2.66134433588878 24.3181311985426  2.72615384615385 23.6692307692308  C 3.32904158511119 18.7293140589015  7.52321855844013 15.0158914957858  12.4997887358591 15.0158914957858  C 15.1112671464094 15.0158914957858  17.6157764083333 16.0533431000659  19.4623076923077 17.9  C 21.0252439647161 19.4495789728022  22.0164110497427 21.483437560408  22.2738461538462 23.6692307692308  C 22.3414859841203 24.3155317967223  22.8863516555693 24.8063493885974  23.5361825295481 24.8063493885974  C 24.2371593274103 24.8063493885974  24.8054132987789 24.2380954172288  24.8054132987789 23.5371186193666  C 24.8054132987789 23.4799348579964  24.8015487789567 23.42281646285  24.7938461538462 23.3661538461538  Z M 11.9838461538462 12.4923076923077  C 9.48024468765569 12.2248129028447  7.58034954333164 10.1140025356562  7.57692307692308 7.59615384615385  C 7.57703874594194 4.87729533420285  9.78114148113334 2.67328636666307  12.4999999955448 2.67328636666307  C 15.2189403024041 2.67328636666307  17.4230769186217 4.8774229828807  17.4230769186217 7.59636328973999  C 17.4230769186217 10.1154892905928  15.5213962049366 12.2281930733761  13.0161538461538 12.4923076923077  C 12.6722246537872 12.4768600181974  12.3277753462128 12.4768600181974  11.9838461538462 12.4923076923077  Z " fill-rule="nonzero" fill="#333333" stroke="none" transform="matrix(1 0 0 1 317 8 )" />
  </g>
</svg>