<?xml version="1.0" encoding="utf-8"?>
<svg version="1.1" xmlns:xlink="http://www.w3.org/1999/xlink" width="15px" height="15px" xmlns="http://www.w3.org/2000/svg">
  <g transform="matrix(1 0 0 1 -16 -16 )">
    <path d="M 14.4375 0.416666666666668  C 15.1875 0.833333333333333  15.1875 1.35416666666667  14.4375 1.77083333333333  L 3.9375 7.5  L 14.4375 13.2291666666667  C 15 13.5416666666667  15 14.1666666666667  14.4375 14.4791666666667  C 13.875 14.7916666666667  12.75 14.7916666666667  12.1875 14.4791666666667  L 0.75 8.22916666666667  C 0.75 8.22916666666667  0.562500000000001 8.22916666666667  0.562500000000001 8.125  C 0.1875 8.02083333333333  0 7.70833333333333  0 7.5  C 0 7.29166666666667  0.1875 6.97916666666667  0.5625 6.875  C 0.5625 6.875  0.749999999999999 6.875  0.749999999999999 6.77083333333333  L 12.1875 0.416666666666668  C 12.75 0.104166666666668  13.875 0.104166666666668  14.4375 0.416666666666668  Z " fill-rule="nonzero" fill="#797979" stroke="none" transform="matrix(1 0 0 1 16 16 )" />
  </g>
</svg>