<svg class="icon" viewBox="0 0 1024 1024" version="1.1" xmlns="http://www.w3.org/2000/svg" p-id="10230" height="128" width="128"><path d="M835.968 894.506667c-11.328-4.8-14.378667-13.504-13.504-25.28 3.925333-51.84 6.976-104.128 10.453333-156.416 0.874667-10.901333 1.749333-21.781333 2.176-32.682667 0-3.477333-0.874667-7.850667-3.050666-10.026667-5.653333-5.653333-12.202667-11.754667-19.178667-15.68-19.178667-11.328-40.96-16.554667-62.741333-20.032-22.656-3.925333-45.738667-6.976-68.416-11.776-12.202667-2.624-23.957333-7.850667-36.608-12.202666-2.624 13.077333-5.226667 26.133333-7.850667 39.637333-14.805333 74.069333-29.184 148.138667-44.010667 222.208-1.749333 8.704-5.653333 14.805333-14.378666 16.981333-10.901333 2.624-20.48-4.352-22.229334-15.68-6.101333-42.688-12.202667-85.824-18.304-128.533333-3.925333-26.581333-7.850667-53.162667-11.328-79.722667a34.133333 34.133333 0 0 1 1.749334-16.128c4.352-12.202667 9.578667-23.530667 13.930666-35.285333 0.426667-1.749333 1.301333-3.050667 1.749334-5.226667h-46.186667c0.874667 2.176 1.301333 3.477333 1.749333 5.226667 3.050667 7.402667 5.226667 15.253333 9.152 22.229333 7.402667 13.930667 7.402667 28.330667 5.226667 43.562667-9.152 62.293333-17.877333 124.608-26.581333 186.922667l-1.301334 7.850666c-1.749333 9.152-8.704 15.68-17.429333 15.68-9.152 0.426667-16.554667-5.226667-18.730667-14.805333-4.352-21.354667-8.725333-42.688-12.629333-64.042667-13.077333-66.218667-26.133333-132.010667-39.210667-198.250666 0-0.874667-0.426667-1.749333-0.426666-2.176-10.901333 3.925333-20.906667 8.704-31.808 10.901333a903.466667 903.466667 0 0 1-60.117334 10.88c-23.104 3.925333-46.613333 7.850667-67.968 18.304-8.704 4.352-17.002667 10.453333-24.832 16.554667-4.352 3.477333-6.101333 8.704-5.674666 14.805333l10.453333 155.114667c0.874667 10.901333 1.301333 21.781333 2.176 32.234666 1.301333 11.754667-2.176 20.48-13.504 25.258667h-8.661333c-10.901333-3.925333-13.930667-12.202667-14.805334-23.082667-3.477333-55.765333-7.402667-111.104-10.901333-166.869333-0.448-6.528-1.322667-13.056-1.749333-19.584v-14.805333c9.152-33.109333 35.285333-47.936 64.490666-59.264 26.581333-10.453333 54.016-14.805333 81.92-18.304 21.354667-2.624 41.834667-6.976 61.44-16.128 6.528-3.050667 12.629333-6.976 17.002667-13.077334a16.128 16.128 0 0 1 17.856-6.528c8.277333 1.749333 12.629333 7.402667 14.378667 15.253334 3.050667 14.805333 5.653333 29.632 8.704 44.010666 9.152 47.061333 18.730667 94.122667 28.757333 141.610667 0.874667-6.101333 1.749333-12.202667 2.624-17.856l10.453333-74.944a15.402667 15.402667 0 0 0-1.301333-8.704c-7.850667-19.605333-15.68-38.784-23.530667-57.941333-6.528-15.68 2.176-28.757333 19.605334-28.757334h94.976c17.429333 0 25.706667 12.629333 19.178666 28.757334-7.850667 19.178667-15.68 38.784-23.530666 57.941333a19.072 19.072 0 0 0-1.301334 8.704c3.925333 29.632 8.277333 59.690667 12.629334 89.322667 0 1.301333 0.426667 2.176 1.749333 3.477333 2.176-10.88 4.352-22.229333 6.528-33.109333 10.026667-50.538667 20.053333-101.077333 30.058667-152.064 1.749333-8.277333 6.101333-13.952 14.378666-15.68 8.277333-1.749333 14.378667 1.749333 19.605334 8.277333 3.477333 3.925333 7.850667 7.402667 12.629333 10.026667 20.053333 10.026667 41.386667 14.378667 63.616 17.429333 34.858667 4.352 69.269333 10.453333 101.077333 26.581333 6.101333 3.050667 11.754667 6.528 17.002667 10.453334 13.930667 10.026667 23.957333 23.530667 28.309333 40.512v14.805333c-0.426667 1.301333-0.874667 2.176-0.874666 3.477333-1.749333 27.882667-3.477333 55.765333-5.653334 83.648-2.176 33.557333-4.8 67.541333-6.528 101.077334-0.426667 10.453333-4.8 17.429333-14.378666 20.906666h-6.570667z m0 0" fill="#222222" p-id="10231"></path><path d="M562.794667 128.554667c7.402667 1.301333 14.805333 2.176 21.781333 4.352 24.405333 6.976 41.386667 21.781333 48.789333 47.061333a9.813333 9.813333 0 0 0 3.477334 4.8c25.706667 16.128 38.784 40.085333 44.010666 68.842667 3.925333 23.082667 2.624 46.186667-1.749333 69.269333-0.874667 3.925333-0.426667 6.101333 3.050667 9.152 31.381333 27.882667 23.957333 84.522667-15.68 100.224-1.749333 0.874667-3.477333 3.477333-4.352 5.674667-8.704 31.381333-23.530667 58.816-46.613334 81.472-27.456 27.008-60.138667 41.834667-99.349333 40.512-39.210667-1.301333-71.018667-18.304-97.152-46.613334-20.053333-21.781333-33.109333-47.488-40.96-75.818666-0.874667-3.925333-2.624-6.101333-6.101333-8.277334-17.429333-9.578667-26.581333-24.832-28.757334-44.010666-2.176-17.429333 2.176-33.557333 13.077334-47.936 1.301333-1.749333 1.301333-4.8 0.874666-7.402667-6.976-29.632-9.578667-59.264-2.624-89.322667 9.578667-41.386667 34.410667-70.592 74.496-85.824 33.557333-12.629333 67.968-22.208 103.701334-25.706666 0.874667 0 1.749333-0.426667 2.624-0.874667 9.152 0.426667 18.304 0.426667 27.456 0.426667z m-14.378667 36.16c-17.429333 3.050667-34.410667 4.8-50.986667 8.704-20.032 5.226667-40.512 10.453333-59.690666 18.730666-33.109333 13.504-47.488 40.512-50.112 74.944-1.749333 23.082667 1.749333 45.312 8.704 67.541334 3.050667 10.026667 0.874667 17.856-6.976 23.530666-10.026667 6.976-13.504 19.605333-7.402667 30.506667 2.176 3.477333 6.101333 7.850667 10.026667 8.704 12.202667 1.749333 16.981333 9.152 19.178666 20.48 5.674667 30.058667 18.730667 56.213333 41.386667 77.12 24.405333 22.656 53.141333 32.682667 86.272 26.133333 27.882667-5.674667 48.789333-22.229333 65.344-44.885333 13.504-18.304 21.354667-39.210667 25.706667-61.866667 1.749333-10.026667 8.277333-16.128 17.856-16.554666 9.578667-0.426667 15.253333-5.653333 17.002666-16.128 1.749333-10.026667-3.050667-20.48-11.328-23.530667-13.930667-5.226667-17.429333-12.629333-13.504-27.456 6.101333-23.104 9.152-46.613333 4.8-70.592-3.477333-20.053333-12.629333-36.608-32.234666-45.738667-8.277333-3.925333-12.629333-10.026667-13.504-18.730666-1.301333-11.754667-7.402667-20.906667-19.178667-24.405334-10.005333-3.029333-20.906667-4.330667-31.36-6.506666z m0 0" fill="#222222" p-id="10232"></path></svg>