<?xml version="1.0" encoding="utf-8"?>
<svg version="1.1" xmlns:xlink="http://www.w3.org/1999/xlink" width="290px" height="40px" xmlns="http://www.w3.org/2000/svg">
  <g transform="matrix(1 0 0 1 -66 -904 )">
    <path d="M 67 924  A 19 19 0 0 1 86 905 L 336 905  A 19 19 0 0 1 355 924 A 19 19 0 0 1 336 943 L 86 943  A 19 19 0 0 1 67 924 Z " fill-rule="nonzero" fill="#ffffff" stroke="none" />
    <path d="M 66.5 924  A 19.5 19.5 0 0 1 86 904.5 L 336 904.5  A 19.5 19.5 0 0 1 355.5 924 A 19.5 19.5 0 0 1 336 943.5 L 86 943.5  A 19.5 19.5 0 0 1 66.5 924 Z " stroke-width="1" stroke="#0f70e3" fill="none" stroke-opacity="0.501960784313725" />
  </g>
</svg>