<?xml version="1.0" encoding="utf-8"?>
<svg version="1.1" xmlns:xlink="http://www.w3.org/1999/xlink" width="30px" height="30px" xmlns="http://www.w3.org/2000/svg">
  <g transform="matrix(1 0 0 1 -13 -9 )">
    <path d="M 29.6875 18.2001201923077  C 29.6875 12.5390625  24.697265625 7.93269230769231  18.564453125 7.93269230769231  L 16.0546875 7.93269230769231  L 16.0546875 5.20132211538461  C 16.0546875 2.64122596153846  13.8037109375 0.56340144230769  11.0302734375 0.56340144230769  L 10.3076171875 0.56340144230769  C 7.9296875 0.56340144230769  6.005859375 2.33924278846154  6.005859375 4.53425480769231  L 6.005859375 12.9987980769231  C 6.005859375 13.5126201923077  5.5517578125 13.9317908653846  4.9951171875 13.9317908653846  L 2.236328125 13.9317908653846  C 1.640625 13.9317908653846  1.162109375 14.3780048076923  1.162109375 14.9233774038462  C 1.162109375 15.4732572115385  1.6455078125 15.9149639423077  2.236328125 15.9149639423077  L 6.2744140625 15.9149639423077  C 7.314453125 15.9149639423077  8.15917968750001 15.1352163461538  8.15917968750001 14.1751802884615  L 8.15917968750001 4.52974759615384  C 8.15917968750001 3.43449519230769  9.12109375 2.54657451923077  10.3076171875 2.54657451923077  L 11.0302734375 2.54657451923077  C 12.6171875 2.54657451923077  13.9013671875 3.73197115384615  13.9013671875 5.19681490384615  L 13.9013671875 8.91977163461538  C 13.9013671875 9.46965144230769  14.384765625 9.91135817307692  14.9755859375 9.91135817307692  L 18.564453125 9.91135817307692  C 23.5107421875 9.91135817307692  27.5341796875 13.6253004807692  27.5341796875 18.1911057692308  L 27.5341796875 19.4305889423077  C 27.5341796875 23.90625  23.5888671875 27.5435697115385  18.7451171875 27  L 2.2412109375 27  C 1.6455078125 27.5435697115385  1.1669921875 27.9897836538462  1.1669921875 28.53515625  C 1.1669921875 29.0805288461538  1.650390625 29.5267427884615  2.2412109375 29  L 18.7451171875 29  C 24.7802734375 29.5267427884615  29.6875 24.9969951923077  29.6875 19.4260817307692  L 29.6875 18.2001201923077  Z " fill-rule="nonzero" fill="#333333" stroke="none" transform="matrix(1 0 0 1 13 9 )" />
  </g>
</svg>