<?xml version="1.0" encoding="utf-8"?>
<svg version="1.1" xmlns:xlink="http://www.w3.org/1999/xlink" width="30px" height="30px" xmlns="http://www.w3.org/2000/svg">
  <g transform="matrix(1 0 0 1 -10 -10 )">
    <path d="M 26.5862068965517 3.41379310344828  L 23.2758620689655 3.41379310344828  L 23.2758620689655 4.24137931034483  C 23.2758620689655 4.73793103448276  22.9448275862069 5.06896551724138  22.448275862069 5.06896551724138  C 21.951724137931 5.06896551724138  21.6206896551724 4.73793103448276  21.6206896551724 4.24137931034483  L 21.6206896551724 4  L 8.37931034482759 4  L 8.37931034482759 4.24137931034483  C 8.37931034482759 4.73793103448276  8.04827586206896 5.06896551724138  7.55172413793103 5.06896551724138  C 7.0551724137931 5.06896551724138  6.72413793103448 4.73793103448276  6.72413793103448 4.24137931034483  L 6.72413793103448 3.41379310344828  L 3.41379310344828 3.41379310344828  C 2.42068965517241 3.41379310344828  1.75862068965517 4.07586206896552  1.75862068965517 5.06896551724138  L 1.75862068965517 10  L 28.2413793103448 10  L 28.2413793103448 5.06896551724138  C 28.2413793103448 4.07586206896552  27.5793103448276 3.41379310344828  26.5862068965517 3.41379310344828  Z M 23.2758620689655 0.931034482758621  L 23.2758620689655 1.75862068965517  L 26.5862068965517 1.75862068965517  C 28.4068965517241 1.75862068965517  29.8965517241379 3.24827586206897  29.8965517241379 5.06896551724138  L 29.8965517241379 26.5862068965517  C 29.8965517241379 28.4068965517241  28.4068965517241 29.8965517241379  26.5862068965517 29.8965517241379  L 3.41379310344828 29.8965517241379  C 1.59310344827586 29.8965517241379  0.103448275862069 28.4068965517241  0.103448275862069 26.5862068965517  L 0.103448275862069 5.06896551724138  C 0.103448275862069 3.24827586206897  1.59310344827586 1.75862068965517  3.41379310344828 1.75862068965517  L 6.72413793103448 1.75862068965517  L 6.72413793103448 0.931034482758621  C 6.72413793103448 0.43448275862069  7.0551724137931 0.103448275862069  7.55172413793103 0.103448275862069  C 8.04827586206897 0.103448275862069  8.37931034482759 0.43448275862069  8.37931034482759 0.931034482758621  L 8.37931034482759 2  L 21.6206896551724 2  L 21.6206896551724 0.931034482758621  C 21.6206896551724 0.43448275862069  21.951724137931 0.103448275862069  22.448275862069 0.103448275862069  C 22.9448275862069 0.103448275862069  23.2758620689655 0.43448275862069  23.2758620689655 0.931034482758621  Z M 28 12  L 2 12  L 2 26.5862068965517  C 1.75862068965517 27.5793103448276  2.42068965517241 28.2413793103448  3.41379310344828 28  L 26.5862068965517 28  C 27.5793103448276 28.2413793103448  28.2413793103448 27.5793103448276  28 26.5862068965517  L 28 12  Z " fill-rule="nonzero" fill="#333c4f" stroke="none" transform="matrix(1 0 0 1 10 10 )" />
  </g>
</svg>