<?xml version="1.0" encoding="utf-8"?>
<svg version="1.1" xmlns:xlink="http://www.w3.org/1999/xlink" width="30px" height="30px" xmlns="http://www.w3.org/2000/svg">
  <g transform="matrix(1 0 0 1 -10 -10 )">
    <path d="M 29.8114285714286 10.0366666796875  C 29.8114285714286 8.71  29.0995918239796 7.48  27.9567347066327 6.8333333203125  L 17.0930612372449 0.6933333203125  C 15.7836734693878 -0.0466666796874998  14.2195918622449 -0.0466666796874998  12.9102040943878 0.6933333203125  L 2.04326529336735 6.8333333203125  C 0.900408137755102 7.48  0.188571428571428 8.71  0.188571428571428 10.04  L 1.56326529336735 26.2566666796875  C 1.59591834183673 28.25  3.19918366071429 29.86  5.16163266581633 29.86  L 24.8383673341837 29.86  C 26.8008163010204 29.86  28.404081619898 28.25  28.4367347066327 26.2566666796875  L 29.8048979464286 10.1533333203125  L 29.8114285714286 10.0366666796875  Z M 18.7877551147959 18.9433333203125  L 18.7910204081633 27.1933333203125  L 11.2089795918367 27.1933333203125  L 11.2089795918367 18.9433333203125  C 11.2089795918367 18.486666640625  11.4669387627551 18.196666640625  11.6008163265306 18.1966666796875  L 18.395918380102 18.1966666796875  C 18.5297959438775 18.1966666796875  18.7877551147959 18.4866666796875  18.7877551147959 18.9433333203125  Z M 27.1991836607143 9.9966666796875  L 25.8310204209184 26.08  L 25.8244897959184 26.1966666796875  C 25.8244897959184 26.75  25.3804081760204 27.1966666796875  24.8383673341837 27.1966666796875  L 21.4032653188775 27.1966666796875  L 21.4032653188775 18.9433333203125  C 21.4032653188775 17.06  20.054693877551 15.53  18.3991836734694 15.53  L 11.604081619898 15.53  C 9.94857141581633 15.53  8.5999999744898 17.06  8.6000000127551 18.9433333203125  L 8.6000000127551 27.1933333203125  L 5.16163266581633 27.1933333203125  C 4.61632653061225 27.1933333203125  4.17551020408163 26.7433333203125  4.17551020408163 26.1933333203125  L 2.80408163265306 9.9933333203125  C 2.82102097147172 9.64599464549078  3.01237995332272 9.33218135533969  3.31020409438776 9.1633333203125  L 14.1738775637755 3.0233333203125  C 14.6930612372449 2.73  15.3102040943878 2.73  15.8293877678571 3.0233333203125  L 26.6930612372449 9.1666666796875  C 26.9934694132653 9.3366666796875  27.1828571556122 9.65  27.1991836607143 9.9966666796875  Z " fill-rule="nonzero" fill="#333c4f" stroke="none" transform="matrix(1 0 0 1 10 10 )" />
  </g>
</svg>