<?xml version="1.0" encoding="utf-8"?>
<svg version="1.1" xmlns:xlink="http://www.w3.org/1999/xlink" width="350px" height="40px" viewBox="8 5  350 40" xmlns="http://www.w3.org/2000/svg">
  <path d="M 9 25  A 19 19 0 0 1 28 6 L 338 6  A 19 19 0 0 1 357 25 A 19 19 0 0 1 338 44 L 28 44  A 19 19 0 0 1 9 25 Z " fill-rule="nonzero" fill="#f0f0f0" stroke="none" />
  <path d="M 8.5 25  A 19.5 19.5 0 0 1 28 5.5 L 338 5.5  A 19.5 19.5 0 0 1 357.5 25 A 19.5 19.5 0 0 1 338 44.5 L 28 44.5  A 19.5 19.5 0 0 1 8.5 25 Z " stroke-width="1" stroke="#0f70e3" fill="none" stroke-opacity="0.501960784313725" />
</svg>