<?xml version="1.0" encoding="utf-8"?>
<svg version="1.1" xmlns:xlink="http://www.w3.org/1999/xlink" width="20px" height="20px" xmlns="http://www.w3.org/2000/svg">
  <g transform="matrix(1 0 0 1 -21 -10 )">
    <path d="M 11.2976 15.551  C 11.0214 15.551  10.7976 15.7748  10.7976 16.051  C 10.7976 16.3272  11.0214 16.551  11.2976 16.551  L 18.8988 16.551  C 19.175 16.551  19.3988 16.3272  19.3988 16.051  C 19.3988 15.7748  19.175 15.551  18.8988 15.551  L 11.2976 15.551  Z M 19.3988 18.7606  C 19.3988 18.4844  19.175 18.2606  18.8988 18  L 7.6852 18  C 7.409 18.2606  7.1852 18.4844  7.1852 18.7606  C 7.1852 19.0368  7.409 19.2606  7.6852 19  L 18.8988 19  C 19.175 19.2606  19.3988 19.0368  19.3988 18.7606  Z M 8.0046 16.4694  C 8.0234 16.4554  8.0424 16.442  8.0594 16.425  C 8.0652 16.419  8.0694 16.412  8.075 16.4056  C 8.0876 16.394  8.1018 16.3824  8.1132 16.3708  L 16.134 8.3502  L 17.6308 6.8534  C 18.2582 6.226  18.6038 5.3918  18.6038 4.5046  C 18.6038 3.6174  18.258 2.7832  17.6308 2.1558  L 17.1874 1.7124  C 16.56 1.0848  15.7256 0.739400000000001  14.8386 0.739400000000001  C 13.9516 0.739400000000001  13.1174 1.085  12.4898 1.7124  L 2.9722 11.2302  C 2.9608 11.2414  2.9498 11.2556  2.9386 11.2676  C 2.9322 11.2734  2.9248 11.2778  2.9184 11.284  C 2.8978 11.3044  2.881 11.3268  2.8646 11.3496  C 2.8628 11.3518  2.861 11.354  2.8592 11.3562  C 2.8574 11.359  2.855 11.3614  2.8534 11.3642  C 1.7248 12.7644  0.7242 17.7962  0.6102 18.3842  C 0.5778 18.5516  0.6328 18.7238  0.7562 18.8414  C 0.8502 18.9308  0.974 18.9792  1.101 18.9792  C 1.1406 18.9792  1.1804 18.9746  1.2198 18.965  C 1.786 18.8264  6.6598 17.6096  8.0046 16.4694  Z M 7.706 15.3644  L 3.9792 11.6376  L 11.3474 4.2694  L 15.074 7.9964  L 7.706 15.3644  Z M 12.0542 3.5624  L 13.1968 2.4196  C 13.6354 1.9812  14.2184 1.7396  14.8386 1.7396  C 15.4588 1.7396  16.0418 1.9812  16.4802 2.4196  L 16.9238 2.8632  C 17.3622 3.3016  17.6038 3.8846  17.6038 4.5048  C 17.6038 5.125  17.3622 5.708  16.9238 6.1464  L 15.7808 7.2894  L 12.0542 3.5624  Z M 1.751 17.7972  C 2.1448 15.9586  2.78 13.542  3.3542 12.4268  L 6.9256 15.9984  C 5.8384 16.6024  3.5188 17.3284  1.751 17.7972  Z " fill-rule="nonzero" fill="#bfbfbf" stroke="none" transform="matrix(1 0 0 1 21 10 )" />
  </g>
</svg>