<?xml version="1.0" encoding="utf-8"?>
<svg version="1.1" xmlns:xlink="http://www.w3.org/1999/xlink" width="300px" height="42px" viewBox="22 54  300 42" xmlns="http://www.w3.org/2000/svg">
  <path d="M 23 74  A 19 19 0 0 1 42 55 L 302 55  A 19 19 0 0 1 321 74 L 321 76  A 19 19 0 0 1 302 95 L 42 95  A 19 19 0 0 1 23 76 L 23 74  Z " fill-rule="nonzero" fill="#f0f0f0" stroke="none" />
  <path d="M 22.5 74  A 19.5 19.5 0 0 1 42 54.5 L 302 54.5  A 19.5 19.5 0 0 1 321.5 74 L 321.5 76  A 19.5 19.5 0 0 1 302 95.5 L 42 95.5  A 19.5 19.5 0 0 1 22.5 76 L 22.5 74  Z " stroke-width="1" stroke="#0f70e3" fill="none" stroke-opacity="0.501960784313725" />
</svg>