<?xml version="1.0" encoding="utf-8"?>
<svg version="1.1" xmlns:xlink="http://www.w3.org/1999/xlink" width="16px" height="20px" xmlns="http://www.w3.org/2000/svg">
  <g transform="matrix(1 0 0 1 136 -210 )">
    <path d="M 15.8437656835938 12.186387734375  C 15.8437656835938 11.0973221875  15.6206136523437 10.0396373828125  15.1765969335937 9.04209205078125  C 14.7414225976562 8.06471408203125  14.1188005664063 7.19891212890625  13.3266666601563 6.47138076171875  L 12.6772663867188 5.87556486328125  C 12.581255234375 5.79079498046875  12.4295955273438 5.82873083984375  12.3871966601563 5.94923291015625  L 12.0970432421875 6.7815899609375  C 11.9162622070313 7.30373779296875  11.583821484375 7.8370990234375  11.1130265039063 8.36150626953125  C 11.0892286685679 8.38738455877141  11.0565259308763 8.40330746704312  11.0214783789063 8.4060808984375  C 10.9861573144092 8.40930120453382  10.9511666186968 8.39710885908215  10.9254951171875 8.3726359765625  C 10.8943375195312 8.34594140625  10.8786331835938 8.30571826171875  10.8809205078125 8.2655230078125  C 10.9634030664062 6.92214783203125  10.5617852148437 5.40694560546875  9.68256625 3.75790794921875  C 8.95503486328125 2.387726640625  7.9442119921875 1.31882845703125  6.68114365234375 0.57352859375  L 5.75955369140625 0.0312412890625  C 5.6390237109375 -0.04013947265625  5.48507669921875 0.05358439453125  5.49171548828125 0.194142265625  L 5.54086470703125 1.265216171875  C 5.574309609375 1.9972105859375  5.48953974609375 2.64435146484375  5.2887308203125 3.18217572265625  C 5.043235703125 3.8403905078125  4.6906276171875 4.45188283203125  4.23986052734375 5.00083681640625  C 3.92301255859375 5.38471408203125  3.56822873046875 5.73054392578125  3.17988841796875 6.02953974609375  C 2.2404462890625 6.75032078125  1.4661645703125 7.689762890625  0.94172943359375 8.74080892578125  C 0.41283125 9.80306833984375  0.1338912109375 10.9924965039063  0.1338912109375 12.1841004101562  C 0.1338912109375 13.2374058398437  0.34145048828125 14.2571826953125  0.75202232421875 15.2189679296875  C 1.14917712890625 16.145048828125  1.716011171875 16.9796652734375  2.4367921875 17.6936959570312  C 3.15983263671875 18.4078382226562  3.99885634765625 18.9701813085937  4.9338354296875 19.36069734375  C 5.90239888671875 19.7667782421875  6.92892609375 19.9720781054687  7.98889818359375 19.9720781054687  C 9.0488702734375 19.9720781054687  10.0752580078125 19.7667782421875  11.043821484375 19.3628730859375  C 11.9788284570312 18.9723570507812  12.8201115820313 18.41230125  13.5408926171875 17.6959832617187  C 14.263849375 16.9818688867188  14.8306555273438 16.1473361132812  15.2256345898438 15.2211436523437  C 15.6363179882812 14.2594700195312  15.8437656835938 13.2395815820312  15.8437656835938 12.186387734375  Z " fill-rule="nonzero" fill="#d71616" stroke="none" transform="matrix(1 0 0 1 -136 210 )" />
  </g>
</svg>