<?xml version="1.0" encoding="utf-8"?>
<svg version="1.1" xmlns:xlink="http://www.w3.org/1999/xlink" width="20px" height="20px" xmlns="http://www.w3.org/2000/svg">
  <g transform="matrix(1 0 0 1 140 -127 )">
    <path d="M 0.164609043209878 9.71193416666667  C 0.16460901234568 4.43917697530864  4.43917694444445 0.164609043209877  9.71193416666667 0.164609043209877  C 14.9846913580247 0.164609043209877  19.2592592592593 4.43917694444445  19.2592592592593 9.71193416666667  C 19.2626404986284 11.9035377328278  18.5087905019057 14.0290179251334  17.1252675 15.7287242901235  L 19.6286419753086 18.2314403395062  C 19.8139224320314 18.416720796229  19.9180119087683 18.6680150226673  19.9180119087683 18.9300411574074  C 19.9180119087683 19.4756823366629  19.4756823366629 19.9180119087683  18.9300411574074 19.9180119087683  C 18.6680150226673 19.9180119087683  18.416720796229 19.8139224320314  18.2314403395062 19.6286419753086  L 15.7287242901235 17.1252675  C 14.0290179251334 18.5087905019057  11.9035377328278 19.2626404986284  9.71193416666667 19.2592592592593  C 4.43917697530864 19.2592592592593  0.164609074074075 14.9846913580247  0.164609043209878 9.71193416666667  Z M 17.2839506172839 9.71193416666667  C 17.2839506172839 5.53020577160494  13.8936625617284 2.13991768518519  9.71193416666667 2.13991768518519  C 5.53020577160494 2.13991768518519  2.13991771604938 5.53020574074074  2.13991768518519 9.71193416666667  C 2.13991765432099 13.8936625925926  5.53020577160494 17.2839506172839  9.71193416666667 17.2839506172839  C 13.8936625617284 17.2839506172839  17.2839506172839 13.8936625617284  17.2839506172839 9.71193416666667  Z M 9.71193416666667 3.45679012345679  C 13.1665548176732 3.45679014050262  15.9670781790124 6.25731351566014  15.9670781790123 9.71193416666667  C 15.9670781790123 10.2574005862526  15.5248902776107 10.6995884876543  14.9794238580247 10.6995884876543  C 14.4339574384387 10.6995884876543  13.991769537037 10.2574005862526  13.991769537037 9.71193416666667  C 13.991769537037 7.34824635483208  12.0756219785013 5.43209878247792  9.71193416666667 5.4320987654321  C 9.1664677470807 5.4320987654321  8.72427984567901 4.98991086403041  8.72427984567901 4.44444444444444  C 8.72427984567901 3.89897802485848  9.1664677470807 3.45679012345679  9.71193416666667 3.45679012345679  Z " fill-rule="nonzero" fill="#0f70e3" stroke="none" transform="matrix(1 0 0 1 -140 127 )" />
  </g>
</svg>