<?xml version="1.0" encoding="utf-8"?>
<svg version="1.1" xmlns:xlink="http://www.w3.org/1999/xlink" width="25px" height="28px" xmlns="http://www.w3.org/2000/svg">
  <g transform="matrix(1 0 0 1 -177 -6 )">
    <path d="M 25 14  C 25 6.19999999609375  19.4642857177734 0  12.5 0  C 5.53571428222656 0  0 6.19999999609375  0 14  C 0 21.8000000039063  5.53571428222656 28  12.5 28  C 19.4642857177734 28  25 21.8000000039063  25 14  Z M 23.2142857177734 14  C 23.2142857177734 20.6000000117187  18.3928571533203 26.0000000039062  12.5 26.0000000039062  C 6.60714284667969 26.0000000039062  1.78571428222656 20.6000000117187  1.78571428222656 14  C 1.78571428222656 7.39999998828125  6.60714284667969 1.99999999609375  12.5 1.99999999609375  C 18.3928571533203 1.99999999609375  23.2142857177734 7.39999998828125  23.2142857177734 14  Z M 18.75 14  C 18.75 13.3999999765625  18.3928571533203 12.9999999882812  17.8571428466797 12.9999999882813  L 13.3928571533203 12.9999999882813  L 13.3928571533203 8.00000001171875  C 13.3928571533203 7.400000015625  13.0357143066406 7  12.5 7  C 11.9642856933594 7  11.6071428466797 7.39999998828125  11.6071428466797 8.00000001171875  L 11.6071428466797 12.9999999882813  L 7.14285715332031 12.9999999882813  C 6.60714287109375 12.9999999882813  6.25 13.3999999765625  6.25 14  C 6.25 14.6000000234375  6.60714284667969 15.0000000117187  7.14285715332031 15.0000000117187  L 11.6071428466797 15.0000000117187  L 11.6071428466797 19.9999999882812  C 11.6071428466797 20.599999984375  11.9642856933594 21  12.5 21  C 13.0357143066406 21  13.3928571533203 20.6000000117187  13.3928571533203 19.9999999882812  L 13.3928571533203 15.0000000117187  L 17.8571428466797 15.0000000117187  C 18.3928571289063 15.0000000117187  18.75 14.6000000234375  18.75 14  Z " fill-rule="nonzero" fill="#797979" stroke="none" transform="matrix(1 0 0 1 177 6 )" />
  </g>
</svg>