<?xml version="1.0" encoding="utf-8"?>
<svg version="1.1" xmlns:xlink="http://www.w3.org/1999/xlink" width="12px" height="12px" viewBox="100 357  12 12" xmlns="http://www.w3.org/2000/svg">
  <path d="M 106 357  C 109.36 357  112 359.64  112 363  C 112 366.36  109.36 369  106 369  C 102.64 369  100 366.36  100 363  C 100 359.64  102.64 357  106 357  Z " fill-rule="nonzero" fill="#f0f0f0" stroke="none" />
  <path d="M 106 357.5  C 109.08 357.5  111.5 359.92  111.5 363  C 111.5 366.08  109.08 368.5  106 368.5  C 102.92 368.5  100.5 366.08  100.5 363  C 100.5 359.92  102.92 357.5  106 357.5  Z " stroke-width="1" stroke="#797979" fill="none" />
  <path d="M 106 366  C 104.32 366  103 364.68  103 363  C 103 361.32  104.32 360  106 360  C 107.68 360  109 361.32  109 363  C 109 364.68  107.68 366  106 366  " fill-rule="nonzero" fill="#797979" stroke="none" />
</svg>