<?xml version="1.0" encoding="utf-8"?>
<svg version="1.1" xmlns:xlink="http://www.w3.org/1999/xlink" width="50px" height="50px" xmlns="http://www.w3.org/2000/svg">
  <g transform="matrix(1 0 0 1 -452 -418 )">
    <path d="M 36.6521201334142 21.9555514372347  L 37.5899142510612 21.5804337659187  L 37.1210171922377 18.5794925894481  L 36.1832230745907 18.9546102607641  C 36.3395221043056 19.8298847786537  36.4958211036992 20.8301985203153  36.6521201334142 21.9555514372347  Z M 33.2049452395391 21.9743072892662  L 33.4276713462705 20.6451404244997  L 39.5420889933293 23.2672128077623  L 39.3193628865979 24.595129266222  L 33.2049452395391 21.9743072892662  Z M 37.7462132504548 29.3328651546392  L 38.6058578835658 28.5826298605215  C 38.1369608247423 26.9571200485142  37.7462132807762 25.7067279078229  37.3554657064888 24.5813749423893  L 36.5739706185567 25.206571012735  C 37.0428676773802 26.7070416009703  37.4336152213463 28.0824729654336  37.7462132504548 29.3328651546392  Z M 43.0603799272286 40.5863945664039  C 42.2007353244391 39.0859239781686  41.5755392359006 37.4604141661613  41.106642177077 35.5848259551243  C 42.2788848392965 33.7092376955731  43.2948284414797 30.9583749666465  44.1544730745907 27.2071984960582  L 45.0141176773802 27.5823161188599  L 45.2485662219527 26.2068847543966  L 41.3410907216495 24.5813749423893  C 41.809987780473 23.5810612007277  42.2007353244391 22.4557082838084  42.5914828684051 21.205316143117  L 41.653688750758 20.5801200727714  C 40.872193662826 23.330982801698  39.7781005154639 25.7067279078229  38.4495588538508 27.4572769436022  C 38.6058578835658 27.9574337901759  38.7621568829594 28.4575906852638  38.8403063978169 28.9577475318375  C 39.1529044269254 28.5826298605215  39.4655024863554 28.0824730139478  39.6999510006064 27.7073553426319  C 39.465502456034 30.3331788963008  39.5436519708915 32.8339631776834  39.8562500303214 35.2097082838084  C 38.8403063978169 36.4601004244997  37.6680637659187 37.4604141661613  36.2613725591267 38.210649460279  C 36.4958211036992 38.8358455306246  36.6521201030928 39.3360024257125  36.7302696179503 39.7111200485142  C 38.0588112795634 38.9608847543966  39.2310539417829 38.085610236507  40.16884805943 36.8352180958156  C 40.559595603396 38.5857671315949  41.262941206792 40.3363161188599  42.1225858095816 41.8367867556095  C 42.357034354154 41.4616690842935  42.6696323832626 40.9615122377198  43.0603799272286 40.5863945664039  Z M 40.7940441479685 33.8342769193451  C 40.4814461188599 31.4585318132201  40.4814461188599 28.8327083080655  40.872193662826 25.8317671315949  L 43.2166789569436 26.8320808247423  C 42.5914828684051 29.7079827774409  41.809987780473 32.0837278835658  40.7940441479685 33.8342769193451  Z M 32.588345603396 28.2075122377198  C 33.682438750758 27.0821592722862  34.6202328684051 25.8317671315949  35.4798774711947 24.5813749423893  L 34.7765318981201 23.45602202547  C 33.7605882656155 24.9564926137053  32.8227941479685 26.0818455791389  32.041299029715 26.9571200485142  C 32.2757475742875 27.4572768950879  32.432046573681 27.8323945664039  32.588345603396 28.2075122377198  Z M 36.9647181625227 36.21002202547  C 36.5739706185567 35.0846690600364  36.1050735597332 33.8342769193451  35.7143260157671 32.5838847786537  C 36.3395221043056 31.7086102607641  36.8865686779867 30.7082965191025  37.4336152213463 29.5829436021831  L 36.6521201334142 28.4575906367495  C 36.1832230745907 29.4579043784112  35.7143260157671 30.3331788963008  35.1672794420861 31.2084534141904  C 34.7765318981201 30.0831004487568  34.385784354154 29.0827867556095  33.9950367798666 27.9574337901759  L 33.2135416919345 28.5826298605215  C 33.6042892359006 29.7079828259551  33.9950367798666 30.9583749666465  34.4639338386901 32.2087671073378  C 33.3698406913281 33.7092376955731  32.1194485445725 34.7095514372347  30.7127573681019 35.3347475075804  C 30.8690563978169 35.959943577926  31.0253553972104 36.4601004730139  31.1035049120679 36.8352180958156  C 31.8068505154639 36.335061249242  32.6664951182535 35.4597867313523  33.4479902061856 34.3344337659187  C 33.3698406913281 34.7095514372347  33.2135416616131 35.0846690600364  33.0572426622195 35.5848259551243  C 33.682438750758 35.0846691085506  34.3076348089751 34.334433814433  34.9328308975136 33.5841984718011  C 35.2454289266222 34.5845122134627  35.6361765009096 35.709865130382  35.9487745300182 36.9602573195876  L 36.9647181625227 36.21002202547  Z M 20.0062745300182 20.5801200727714  C 20.5533211036992 19.7048455548817  21.1785171922377 18.8295710369921  21.7255637355973 17.9542965191025  L 23.3667034566404 18.7045318132201  C 23.7574510006064 18.4544533656762  24.1481985445725 18.0793357428745  24.460796573681 17.5791788963008  L 22.4289093389933 16.7039043784112  C 22.8196568829594 15.9536690842935  23.1322549423893 15.2034337901759  23.523002456034 14.3281592722862  L 22.6633578532444 13.4528847543966  C 21.8037132504548 15.8286298605215  20.7096201030928 17.7042180715585  19.3810784414797 19.3297278835658  C 19.6155269860521 19.8298847301395  19.8499755003032 20.2050024014554  20.0062745300182 20.5801200727714  Z M 29.3060661916313 34.4594729896907  C 26.6489828684051 31.9586886597938  25.2422916919345 28.8327082595512  25.007843147362 25.206571012735  L 30.2438603092783 27.4572769436022  L 30.4783088538508 25.9568063068526  L 25.164142177077 23.7061004244997  C 25.3985907216495 22.7057866828381  25.6330392359005 21.3303553183748  25.9456372650091 19.7048455548817  L 30.5564583687083 21.7054729896907  L 30.7909068829594 20.2050024014554  L 26.2582353244391 18.2043749666465  C 26.4926838690115 17.0790220012129  26.7271323832626 15.7035906367495  26.9615808975136 14.3281592722862  L 25.8674877501516 13.9530416009703  C 25.6330392055791 15.3284729654336  25.3985906913281 16.7039043298969  25.164142177077 17.8292572953305  L 24.9296936325046 17.7042180715585  C 24.7733946027896 18.2043749181322  24.617095603396 18.5794925894481  24.3826470891449 19.0796494845361  L 24.9296936325046 19.3297278835658  C 24.617095603396 21.0802769193451  24.3826470588235 22.4557082838084  24.1481985445725 23.330982801698  L 18.7558823529412 20.9552376955731  L 18.5214338386901 22.4557082838084  L 23.7574510006064 24.7064141661613  C 22.6633578532444 27.5823161188599  20.4751715888417 29.2078259308672  17.1147426622195 29.5829436021831  C 17.349191206792 30.3331788963008  17.5054902061856 30.9583749666465  17.5836397210431 31.4585318132201  C 20.8659191328078 30.7082965191025  23.0541053972104 28.9577474833232  24.22634805943 26.2068847543966  C 24.4607966040024 29.8330220012129  25.7893382656155 32.9590024014554  28.2901225591267 35.7098651788963  C 28.6027205882353 35.3347475075804  28.9153186476653 34.8345906610067  29.3060661916313 34.4594729896907  Z M 10.7846323529412 35.959943577926  C 11.4098284414797 35.834904354154  12.3476225591267 35.5848259066101  12.9728186476653 35.0846690600364  L 1.87558823529412 30.3331788963008  C 1.3285416616131 30.0831004487568  0.937794117647059 29.0827867556095  1.09409314736204 28.2075122377198  L 1.71928920557914 24.5813749423893  C 1.3285416616131 24.7064141661613  0.937794117647059 24.7064141661613  0.547046573681019 24.7064141661613  L 0.0781495148574894 27.7073553426319  C -0.234448514251061 29.5829436021831  0.468897058823529 31.4585318132201  1.56299020618557 31.9586887083081  L 10.7846323529412 35.959943577926  Z M 24.8515441479685 40.0862377198302  L 15.8643505154639 36.335061249242  C 15.3954534566404 36.5851396967859  14.9265563978169 36.8352180958157  14.5358088235294 36.7101788720437  C 14.2232107944209 36.5851396482717  13.9887622498484 36.084982801698  13.9106127653123 35.4597867313523  L 13.1291176470588 35.0846690600364  L 12.4257720739842 36.5851396482717  L 23.523002456034 41.3366298605215  C 23.91375 40.9615121892056  24.3826470588235 40.4613553426319  24.8515441479685 40.0862377198302  Z M 0.859644602789569 23.205943577926  C 1.17224263189812 23.45602202547  1.48484069132808 23.581061249242  1.87558823529412 23.7061004244997  L 5.3141666767738 3.19966908429351  C 5.47046570648878 2.32439456640388  6.09566176470588 1.69919849605822  6.6427083383869 1.94927689508793  L 41.9662867798666 17.0790220012129  C 41.7318382352941 16.4538259308672  41.7318382352941 15.5785514129776  41.7318382656155 15.2034337901759  L 8.28384805942996 0.948963153426319  C 8.51829660400243 1.44912  8.83089463311098 1.94927689508793  9.14349266221953 2.32439456640388  C 8.51829657368102 1.94927689508793  7.3460539417829 1.32408082474227  6.72085785324439 0.198727859308672  C 5.62676470588235 -0.0513505882352949  4.53267158884172 0.948963153426319  4.29822304426925 2.69951218920558  L 0.859644602789569 23.205943577926  Z M 43.7637255306246 49.8392965433596  C 43.8418750454821 49.3391396967859  44.0763235597332 48.5889044026683  44.3107720739842 47.8386691085506  C 44.0763235294118 48.0887475560946  43.7637255003032 48.2137867798666  43.4511274711947 48.0887475075804  L 30.0094117950273 42.3369436021831  C 28.7590196482717 41.9618259308672  26.8052818981201 41.5867083080655  24.773394633111 41.8367867556095  L 43.2166789569436 49.7142573195876  C 43.3729779866586 49.8392965433596  43.6074265009096 49.8392965433596  43.7637255306246 49.8392965433596  Z M 47.4367524863554 36.9602573195876  C 46.8897059126744 36.335061249242  46.9678554275319 34.4594729896907  46.9678554275318 34.4594729896907  C 46.9678554275318 34.4594729896907  47.2804534566404 34.8345906610067  47.7493505154639 35.2097082838084  L 49.8593872953305 22.3306690600364  C 50.1719853244391 20.4550808004851  49.4686397513645 18.5794925894482  48.3745466040024 18.0793357428745  L 42.0444362947241 15.3284730139478  C 42.7477818981201 15.9536690842935  44.1544730745907 17.0790220497271  45.7174632807762 17.3291004487568  C 45.3267157368102 17.5791788963008  44.6233701334142 17.8292572953305  43.9981740448757 17.9542965191025  L 48.0619485748939 19.7048455548817  C 48.6089951485749 19.9549240024257  48.9997426925409 20.9552376955731  48.843443662826 21.8305122134627  L 44.8578186476653 45.7130024014554  C 45.0141176773802 46.713316143117  45.0922671922377 47.9637082838084  44.9359681625228 49.089061249242  C 45.2485661916313 48.5889044026683  45.5611642510613 47.9637082838084  45.7174632807762 47.2134729896907  L 47.4367524863554 36.9602573195876  Z M 16.25509805943 23.581061249242  C 15.8643505154639 23.45602202547  15.551752456034 23.0809044026683  15.3173039417829 22.7057867313523  C 15.0047059126743 24.0812180958156  14.6921078532444 25.0815318374773  14.4576593086719 25.8317671315949  C 14.1450612795634 26.5820024257126  13.6761642207398 26.8320808732565  12.9728186476653 26.4569632019406  L 6.95530636749545 23.9561788720437  C 6.25196076409946 23.7061004244997  6.01751224984839 22.9558651303821  6.17381127956337 21.8305122134627  C 5.78306373559733 21.330355366889  5.47046567616738 20.8301984718011  5.47046567616738 20.8301984718011  C 5.47046567616738 20.8301984718011  5.86121322013341 20.7051592480291  6.40825979381443 20.4550808489994  L 7.18975491206792 15.9536690842935  L 14.4576593086719 19.0796494845361  L 14.2232107944209 20.3300416252274  L 15.2391544269254 20.8301984718011  L 16.802144633111 11.5772964948454  L 6.95530636749545 7.20092395391146  L 6.72085785324439 8.70139454214676  L 15.4736029411765 12.452571012735  L 14.6139583383869 17.5791788963008  L 7.34605391146149 14.4531984960582  L 7.81495100060643 11.7023357186173  L 6.79900736810188 11.2021788720437  L 5.07971813220133 21.4553945421468  C 4.76712010309278 23.5810612007277  5.15786764705882 24.8314533899333  6.40825979381443 25.331610236507  L 12.8946691328078 28.0824730139479  C 13.9887622801698 28.5826298605215  14.8484068829594 28.0824730139479  15.3173039417829 26.7070416494845  C 15.5517524863554 25.9568063553669  15.8643505154639 24.9564926137053  16.25509805943 23.581061249242  Z " fill-rule="nonzero" fill="#ee1e1e" stroke="none" fill-opacity="0.501960784313725" transform="matrix(1 0 0 1 452 418 )" />
  </g>
</svg>