<?xml version="1.0" encoding="utf-8"?>
<svg version="1.1" xmlns:xlink="http://www.w3.org/1999/xlink" width="34px" height="24px" xmlns="http://www.w3.org/2000/svg">
  <g transform="matrix(1 0 0 1 -321 -437 )">
    <path d="M 6.76091954022988 14.5851063829787  L 1.70977011494253 12.8106382978723  C 0.468965517241379 12.4148936170213  0.0195402298850577 11.4702127659574  0.356609195402299 9.97659574468086  L 1.64137931034483 3.70212765957447  L 3.24367816091954 4.26382978723405  L 2.9896551724138 5.49574468085107  L 7.83563218390805 7.1936170212766  L 8.3632183908046 4.62127659574469  L 1.6316091954023 2.26595744680852  L 2.01752873563219 0.389361702127668  L 10.3514367816092 3.30638297872341  L 9.05201149425287 9.63829787234043  L 2.60862068965517 7.37872340425533  L 2.07126436781609 10.0085106382979  C 1.89540229885058 10.7170212765958  2.08591954022989 11.1446808510638  2.64281609195402 11.2978723404255  L 6.54109195402299 12.663829787234  C 7.18103448275862 12.9638297872341  7.60603448275862 12.7531914893617  7.81609195402299 12.0191489361702  C 7.84540229885058 11.8787234042553  7.9235632183908 11.636170212766  8.05057471264368 11.2978723404255  C 8.16781609195402 10.8765957446809  8.26063218390805 10.563829787234  8.32902298850575 10.3595744680851  C 8.86149425287356 10.7744680851064  9.34022988505747 11.1382978723404  9.77988505747126 11.4446808510638  C 9.52097701149425 12.2744680851064  9.26206896551724 13.0276595744681  9.00804597701149 13.7042553191489  C 8.62212643678161 14.7191489361702  7.87471264367816 15.0127659574468  6.76091954022988 14.5851063829787  Z M 14.4988505747126 8.48936170212766  C 14.2204022988506 8.96808510638298  13.9224137931034 9.44042553191489  13.5902298850575 9.9  C 13.1994252873563 9.38297872340426  12.7890804597701 8.92978723404256  12.3689655172414 8.5531914893617  C 13.2580459770115 7.37234042553191  13.9761494252874 6.07021276595745  14.5330459770115 4.6531914893617  L 15.9252873563218 5.59787234042553  C 15.7494252873563 6.03191489361702  15.5784482758621 6.43404255319149  15.4123563218391 6.79787234042553  L 16.8925287356322 7.31489361702128  C 16.9511494252874 7.02765957446809  17.0488505747126 6.61914893617022  17.185632183908 6.09574468085106  C 17.2833333333333 5.62978723404255  17.351724137931 5.29148936170213  17.3956896551724 5.07446808510638  L 18.9540229885057 5.62340425531915  C 18.7683908045977 6.51702127659575  18.6022988505747 7.26382978723404  18.4508620689655 7.86382978723405  L 21.7775862068966 9.02553191489362  L 21.3916666666667 10.9021276595745  L 18.0258620689655 9.72765957446809  L 17.6350574712644 11.431914893617  L 21.6163793103448 12.8234042553191  L 21.2304597701149 14.7  L 17.4103448275862 13.3659574468085  C 17.5764367816092 14.9936170212766  18.6609195402299 16.5063829787234  20.6637931034483 17.8978723404255  C 20.048275862069 18.6  19.6183908045977 19.1234042553192  19.3741379310345 19.4617021276596  C 17.4689655172414 17.8723404255319  16.3991379310345 16.2382978723404  16.1597701149425 14.5404255319149  C 15.3683908045977 15.836170212766  13.785632183908 16.6021276595745  11.4163793103448 16.8446808510638  C 11.3772988505747 16.7553191489362  11.3333333333333 16.6021276595745  11.289367816092 16.3978723404255  C 11.0109195402299 15.6127659574468  10.8008620689655 15.0574468085106  10.6591954022989 14.7382978723404  C 13.2238505747126 14.6808510638298  14.8163793103448 13.9914893617021  15.4367816091954 12.6765957446809  L 11.4554597701149 11.2851063829787  L 11.8413793103448 9.40851063829787  L 16.0718390804598 10.8893617021277  C 16.1011494252874 10.7489361702128  16.15 10.4936170212766  16.2281609195402 10.136170212766  C 16.3454022988506 9.71489361702128  16.4235632183908 9.40212765957447  16.4675287356322 9.18510638297873  L 14.4988505747126 8.48936170212766  Z M 28.0206896551724 15.3  L 27.3074712643678 15.8489361702128  C 27.2683908045977 15.7595744680851  27.2097701149425 15.6063829787234  27.1364942528736 15.3893617021277  C 26.7310344827586 14.368085106383  26.4086206896552 13.5829787234043  26.1692528735632 13.0404255319149  L 27.2683908045977 12.3893617021277  L 28.0597701149425 14.1063829787234  C 28.8560344827586 13.0851063829787  29.6278735632184 11.6106382978723  30.3752873563218 9.68297872340425  L 31.7137931034483 10.4425531914894  C 31.5135057471264 10.9851063829787  31.283908045977 11.5404255319149  31.0201149425287 12.0957446808511  L 33.7704022988506 13.0595744680851  L 33.3942528735632 14.8851063829787  L 32.7396551724138 14.6553191489362  C 32.1094827586207 16.736170212766  31.376724137931 18.3574468085106  30.5511494252874 19.5255319148936  C 30.9028735632184 20.3808510638298  31.4011494252874 21.2425531914894  32.041091954023 22.1170212765957  C 31.6991379310345 22.4936170212766  31.3083333333333 22.9723404255319  30.8686781609195 23.5468085106383  C 30.248275862069 22.563829787234  29.7646551724138 21.6446808510638  29.4080459770115 20.7957446808511  C 28.7387931034483 21.3255319148936  27.9034482758621 21.8425531914894  26.8922413793103 22.3276595744681  L 26.3451149425287 20.7  L 25.8566091954023 21.1595744680851  L 24.9528735632184 19.1170212765957  C 24.2591954022988 19.6404255319149  23.3603448275862 20.1702127659574  22.2514367816092 20.7  C 22.1097701149425 19.8063829787234  21.9974137931034 19.1553191489362  21.9045977011494 18.7404255319149  C 22.876724137931 18.4276595744681  23.6632183908046 18.031914893617  24.2591954022989 17.5531914893617  L 23.3994252873563 15.5297872340426  L 24.5327586206897 14.7191489361702  L 25.3778735632184 16.3914893617021  C 25.6905172413793 16.0021276595745  26.0129310344828 15.5234042553191  26.3353448275862 14.9425531914894  L 27.3612068965517 16.1617021276596  C 27.2781609195402 16.2829787234042  27.1706896551724 16.4425531914894  27.0436781609195 16.6276595744681  C 26.8238505747126 16.9723404255319  26.516091954023 17.4191489361702  26.110632183908 17.968085106383  C 26.4770114942529 18.7468085106383  26.8043103448276 19.4553191489362  27.0827586206897 20.0936170212766  C 27.7666666666667 19.7617021276596  28.3626436781609 19.3531914893617  28.8706896551724 18.8808510638298  C 28.7045977011494 17.9808510638298  28.6313218390805 16.9595744680851  28.660632183908 15.8170212765957  L 28.1379310344828 16.436170212766  L 28.0206896551724 15.3  Z M 23.9954022988506 14.636170212766  C 23.7804597701149 14.8276595744681  23.614367816092 14.9808510638298  23.5020114942529 15.0957446808511  L 22.9353448275862 13.5765957446809  C 23.6632183908046 13.0276595744681  24.3666666666667 12.3893617021277  25.0408045977012 11.668085106383  L 25.8810344827586 12.9382978723404  C 25.4364942528736 13.3978723404255  24.8063218390805 13.9595744680851  23.9954022988506 14.636170212766  Z M 28.6948275862069 12.7148936170213  L 23.7706896551724 10.9914893617021  L 24.1224137931035 9.27446808510638  L 25.9689655172414 9.91914893617022  C 25.9640804597701 9.65106382978724  25.9591954022989 9.24893617021277  25.9543103448276 8.70638297872341  C 25.9640804597701 8.52127659574468  25.9591954022989 8.38085106382979  25.9494252873563 8.30425531914894  L 27.551724137931 8.63617021276596  L 27.5272988505747 10.468085106383  L 29.0465517241379 10.9978723404255  L 28.6948275862069 12.7148936170213  Z M 30.0577586206897 13.831914893617  C 29.9258620689655 15.3127659574468  29.9258620689655 16.5382978723404  30.0479885057471 17.5021276595745  C 30.5951149425287 16.6978723404255  31.0689655172414 15.6  31.4744252873563 14.2085106382979  L 30.1212643678161 13.736170212766  L 30.0577586206897 13.831914893617  Z " fill-rule="nonzero" fill="#ee1e1e" stroke="none" fill-opacity="0.501960784313725" transform="matrix(1 0 0 1 321 437 )" />
  </g>
</svg>