<?xml version="1.0" encoding="utf-8"?>
<svg version="1.1" xmlns:xlink="http://www.w3.org/1999/xlink" width="50px" height="50px" xmlns="http://www.w3.org/2000/svg">
  <g transform="matrix(1 0 0 1 -313 -424 )">
    <path d="M 20.4638671875 11.3775510204082  C 21.85546875 10.5867346938776  23.388671875 10.1530612244898  25 10.1530612244898  C 28.7451171875 10.1530612244898  32.0703125 12.5191326530612  34.140625 16.1670918367347  L 35.5908203125 16.6772959183673  C 33.427734375 11.9897959183673  29.4921875 8.85841836734694  25 8.85841836734694  C 22.8271484375 8.85841836734694  20.791015625 9.59183673469388  19.0185546875 10.8737244897959  L 20.4638671875 11.3775510204082  Z M 31.42578125 9.42602040816327  L 32.4658203125 9.31122448979592  L 33.26171875 10.1530612244898  L 33.505859375 8.89668367346939  L 34.39453125 8.22066326530612  L 33.505859375 7.54464285714286  L 33.26171875 6.28826530612245  L 32.4658203125 7.13010204081633  L 31.42578125 7.0280612244898  L 31.8212890625 8.22704081632653  L 31.42578125 9.42602040816327  Z M 19.716796875 6.25  L 18.6962890625 6.49234693877551  L 17.880859375 5.75255102040816  L 17.705078125 7.06632653061224  L 16.8701171875 7.88265306122449  L 17.7734375 8.44387755102041  L 18.0712890625 9.6875  L 18.80859375 8.72448979591837  L 19.8291015625 8.67984693877551  L 19.384765625 7.51913265306123  L 19.716796875 6.25  Z M 27.3583984375 4.8469387755102  L 26.3427734375 4.67474489795918  L 25.7373046875 3.64158163265306  L 25.263671875 4.82142857142857  L 24.27734375 5.26785714285714  L 25.0048828125 6.16071428571429  L 25 7.46811224489796  L 25.9228515625 6.84311224489796  L 26.904296875 7.20663265306122  L 26.748046875 5.92474489795918  L 27.3583984375 4.8469387755102  Z M 38.4130859375 12.5829081632653  L 37.40234375 12.7869897959184  L 36.5478515625 12.0089285714286  L 36.42578125 13.3035714285714  L 35.6201171875 14.0688775510204  L 36.552734375 14.6683673469388  L 36.9091796875 15.9183673469388  L 37.607421875 14.9936224489796  L 38.6376953125 15  L 38.134765625 13.8329081632653  L 38.4130859375 12.5829081632653  Z M 49.931640625 25.7079081632653  C 50.21484375 24.3239795918367  49.58984375 22.9081632653061  48.53515625 22.5446428571429  L 5.5615234375 7.5  C 4.5068359375 7.13010204081633  3.4228515625 7.94642857142857  3.1396484375 9.32397959183673  L 0.068359375 24.2984693877551  C -0.21484375 25.6760204081633  0.41015625 27.0918367346939  1.46484375 27.4617346938776  L 44.4384765625 42.5  C 45.4931640625 42.8698979591837  46.5771484375 42.0535714285714  46.8603515625 40.6760204081633  L 49.931640625 25.7079081632653  Z M 47.802734375 23.6224489795918  C 48.59375 23.8966836734694  49.0625 24.9617346938775  48.84765625 25.9948979591837  L 46.03515625 39.7130102040816  C 45.8251953125 40.7461734693878  45.009765625 41.3584183673469  44.21875 41.0841836734694  L 2.197265625 26.3775510204082  C 1.40625 26.1033163265306  0.9375 25.0382653061224  1.1474609375 24.0051020408163  L 3.9599609375 10.2869897959184  C 4.169921875 9.25382653061225  4.9853515625 8.64158163265306  5.7763671875 8.91581632653062  L 47.802734375 23.6224489795918  Z M 12.4169921875 8.56505102040816  C 15.634765625 4.35586734693878  20.087890625 1.75382653061224  25 1.75382653061224  C 33.2373046875 1.75382653061224  40.166015625 9.0625  42.1923828125 18.9859693877551  L 43.2861328125 19.3686224489796  C 41.337890625 8.53316326530612  33.8916015625 0.465561224489796  25 0.465561224489796  C 19.609375 0.465561224489796  14.7509765625 3.43112244897959  11.3232421875 8.18239795918367  L 12.4169921875 8.56505102040816  Z M 30.9814453125 39.1262755102041  L 29.5361328125 38.6224489795918  C 28.14453125 39.4132653061224  26.611328125 39.8469387755102  25 39.8469387755102  C 21.2548828125 39.8469387755102  17.9296875 37.4808673469388  15.859375 33.8265306122449  L 14.4091796875 33.3163265306122  C 16.572265625 38.0102040816327  20.5078125 41.1415816326531  25 41.1415816326531  C 27.1728515625 41.1415816326531  29.208984375 40.4081632653061  30.9814453125 39.1262755102041  Z M 19.9609375 41.2117346938776  L 18.9306640625 41.3010204081633  L 18.14453125 40.4655612244898  L 17.900390625 41.7219387755102  L 17.021484375 42.3979591836735  L 17.900390625 43.0739795918367  L 18.14453125 44.3303571428572  L 18.9306640625 43.4948979591837  L 19.9609375 43.5969387755102  L 19.5654296875 42.4043367346939  L 19.9609375 41.2117346938776  Z M 23.984375 45.1147959183673  L 24.9951171875 45.280612244898  L 25.595703125 46.3073979591837  L 26.0693359375 45.1275510204082  L 27.0458984375 44.6875  L 26.3232421875 43.7946428571429  L 26.328125 42.4936224489796  L 25.41015625 43.1186224489796  L 24.43359375 42.7551020408163  L 24.58984375 44.0369897959184  L 23.984375 45.1147959183673  Z M 11.4892578125 37.2767857142857  L 12.5 37.1619897959184  L 13.3056640625 38.0102040816327  L 13.49609375 36.734693877551  L 14.3359375 36.0459183673469  L 13.4423828125 35.3635204081633  L 13.154296875 34.0880102040816  L 12.412109375 34.9426020408163  L 11.396484375 34.8469387755102  L 11.8310546875 36.0586734693878  L 11.4892578125 37.2767857142857  Z M 37.5830078125 41.4349489795918  C 34.365234375 45.6441326530612  29.912109375 48.2461734693878  25 48.2461734693878  C 16.7626953125 48.2461734693878  9.8388671875 40.9375  7.8076171875 31.0204081632653  L 6.7138671875 30.6377551020408  C 8.662109375 41.4668367346939  16.1083984375 49.5344387755102  25 49.5344387755102  C 30.390625 49.5344387755102  35.2490234375 46.5688775510204  38.6767578125 41.8176020408163  L 37.5830078125 41.4349489795918  Z M 31.15234375 43.7627551020408  L 32.1484375 43.5076530612245  L 32.958984375 44.2474489795918  L 33.134765625 42.9400510204082  L 33.96484375 42.1301020408163  L 33.0712890625 41.5688775510204  L 32.7734375 40.3252551020408  L 32.0458984375 41.2882653061225  L 31.03515625 41.3329081632653  L 31.4794921875 42.4936224489796  L 31.15234375 43.7627551020408  Z " fill-rule="nonzero" fill="#ee1e1e" stroke="none" fill-opacity="0.501960784313725" transform="matrix(1 0 0 1 313 424 )" />
  </g>
</svg>