<?xml version="1.0" encoding="utf-8"?>
<svg version="1.1" xmlns:xlink="http://www.w3.org/1999/xlink" width="50px" height="50px" xmlns="http://www.w3.org/2000/svg">
  <g transform="matrix(1 0 0 1 -313 -244 )">
    <path d="M 49.839533266129 25  C 49.839533266129 38.6334934979839  38.7471516633065 49.7264241431452  25.1125600302419 49.7264241431452  C 11.4785174899194 49.7264241431452  0.386135887096774 38.6334934979839  0.386135887096774 25  C 0.386135887096774 11.3654083669355  11.4785174899194 0.273026764112904  25.1125600302419 0.273026764112904  C 38.7471516633065 0.273026764112904  49.839533266129 11.3654083669355  49.839533266129 25  Z M 47.643239516129 25  C 47.643239516129 12.5766643649194  37.5358956653226 2.46986960685484  25.1125600302419 2.46986960685484  C 12.6892244455645 2.46986960685484  2.58242963709677 12.5766643649194  2.58242963709677 25  C 2.58242963709677 37.4227865423387  12.6892244455645 47.5301303931452  25.1125600302419 47.5301303931452  C 37.5358956149194 47.5301303931452  47.643239516129 37.4227865423387  47.643239516129 25  Z " fill-rule="nonzero" fill="#ee1e1e" stroke="none" transform="matrix(1 0 0 1 313 244 )" />
  </g>
</svg>