<?xml version="1.0" encoding="utf-8"?>
<svg version="1.1" xmlns:xlink="http://www.w3.org/1999/xlink" width="41px" height="41px" xmlns="http://www.w3.org/2000/svg">
  <g transform="matrix(1 0 0 1 -318 -248 )">
    <path d="M 40.7898782475247 20.5  C 40.7898782475247 31.6265481948529  31.6476123910891 40.6791839938725  20.4103475631188 40.6791839938725  C 9.17308278589109 40.6791839938725  0.0313696683168331 31.6265481948529  0.0313697190594072 20.5  C 0.0313697190594072 9.37235711519607  9.17308278589109 0.320268686274506  20.4103475631188 0.320268686274506  C 31.6476123403465 0.320268686274506  40.7898782475247 9.37290448529412  40.7898782475247 20.5  Z M 40.2371080779703 20.5  C 40.2371080779703 9.67504212745098  31.3424832363861 0.868166860294118  20.4103475631188 0.868166860294118  C 9.47821188985149 0.868166860294118  0.584139837871289 9.67504212745098  0.584139888613863 20.500547370098  C 0.584139888613863 31.3255052426471  9.47821194059406 40.1323805098039  20.4103475631188 40.1323804595588  C 31.3424831856436 40.1323804093137  40.2371080779703 31.324957872549  40.2371080779703 20.5  Z " fill-rule="nonzero" fill="#ee1e1e" stroke="none" transform="matrix(1 0 0 1 318 248 )" />
  </g>
</svg>