<?xml version="1.0" encoding="utf-8"?>
<svg version="1.1" xmlns:xlink="http://www.w3.org/1999/xlink" width="34px" height="12px" xmlns="http://www.w3.org/2000/svg">
  <g transform="matrix(1 0 0 1 -321 -262 )">
    <path d="M 1.1035915 5.85705651724138  L 0.25715745 5.85705651724138  L 0.4750298 4.30753339655172  L 2.1896851 4.30753339655172  C 2.6014638 4.30753339655172  2.93317445 4.65068234482758  2.93317445 5.07666031034483  L 2.93317445 8.60112103448276  C 2.93317445 9.77199703448276  3.8139234 10.1275421896552  4.87659575 10.1275421896552  L 11.53314045 10.1275421896552  L 11.53314045 11.6770653103448  L 5.22028935 11.6770653103448  C 3.51598295 11.6770653103448  2.7044085 11.3226471206897  2.2011234 10.4937931034483  L 1.1711319 11.8432868793103  L 0.176544700000001 10.2453059482759  L 1.1150298 9.47730594827586  C 1.2403064 9.35841527586207  1.2746213 9.18148789655172  1.2746213 8.99216436206896  L 1.2746213 6.03398384482758  C 1.27260130966412 5.93714832526129  1.19719916950462 5.85914613410687  1.1035915 5.85705651724138  Z M 0.43962555 1.2794835  L 1.96091915 0.392029344827585  L 3.2992 2.82900662068965  L 1.7779064 3.71589729310345  L 0.43962555 1.2794835  Z M 5.09555745 0.179040362068958  L 6.81021275 0.179040362068964  L 6.81021275 1.72856348275862  L 8.37725955 1.72856348275862  L 8.37725955 0.179040362068964  L 10.08156595 0.179040362068964  L 10.08156595 1.72856348275862  L 11.13388935 1.72856348275862  L 11.13388935 3.26681731034483  L 10.08156595 3.26681731034483  L 10.08156595 5.01749668965517  L 11.41875745 5.01749668965517  L 11.41875745 6.5551870862069  L 10.08156595 6.5551870862069  L 10.08156595 9.83228762068965  L 8.37725955 9.83228762068965  L 8.37725955 6.55518708620689  L 6.74212765 6.55518708620689  C 6.6048681 7.78579018965517  6.27315745 8.88566984482758  5.5634383 9.90384739655172  L 4.00837445 9.14655320689654  C 4.54651915 8.35319736206896  4.8891234 7.57336463793103  5.026383 6.55518708620689  L 3.37981275 6.55518708620689  L 3.7115234 5.01749668965517  L 5.09555745 5.01749668965517  L 5.09555745 3.26681731034482  L 3.6657702 3.26681731034482  L 3.99748085 1.72856348275861  L 5.09555745 1.72856348275861  L 5.09555745 0.179040362068958  Z M 6.81021275 3.26681731034482  L 6.81021275 5.01749668965517  L 8.37725955 5.01749668965517  L 8.37725955 3.26681731034482  L 6.81021275 3.26681731034482  Z M 14.0403064 0.155374913793104  L 15.51530215 0.983101965517242  C 14.805583 2.24863975862069  13.34202555 3.8939515862069  11.98141275 4.78084225862069  L 11.6273702 2.95860310344828  C 12.31366805 2.50952312068966  13.53702125 1.17242555172414  14.0403064 0.155374913793104  Z M 14.82900425 11.8787850517241  L 13.11325955 11.8787850517241  L 13.11325955 7.51307410344828  C 12.7786032152954 7.79933334698696  12.4271583086118 8.06391437270702  12.06093615 8.30530298275862  L 11.62682555 6.45996186206897  C 12.4046298 5.97594718965517  14.07353195 4.42529715517241  14.7140766 3.18398824137931  L 16.1215319 4.1063770862069  C 15.80125955 4.66195153448276  15.34372765 5.26654727586207  14.82900425 5.84522379310345  L 14.82900425 11.8787850517241  Z M 22.9834213 4.37796625862069  L 22.9834213 5.9162200862069  L 21.20994045 5.9162200862069  L 21.20994045 10.7304475344828  C 21.20994045 11.4522435517241  20.8439149 11.9013235344828  20.03234045 11.8432868793103  L 17.4363915 11.6539632931035  L 17.4363915 10.3286984482759  L 19.0829617 10.470691137931  C 19.41467235 10.5061893103448  19.4947404 10.4464622068966  19.49474045 10.1393749137931  L 19.49474045 5.91565665517241  L 16.04037445 5.91565665517241  L 16.3720851 4.37740277586207  L 22.9834213 4.37740277586207  Z M 16.7620766 0.912105672413794  L 22.59397445 0.912105672413794  L 22.59397445 2.43796329310345  L 16.43036595 2.43796329310345  L 16.7620766 0.912105672413794  Z M 27.9492766 0.143542189655172  L 29.6524936 0.143542189655172  L 29.6524936 2.41486132758621  L 33.42604255 2.41486132758621  C 33.7463149 2.41486132758621  33.9985021 2.68645044827586  33.99850215 3.00593394827586  L 33.99850215 8.66141156896552  L 32.28275745 8.66141156896552  L 32.28275745 8.06921203448276  L 29.6530383 8.06921203448276  L 29.6530383 11.8911812068966  L 27.9487319 11.8911812068966  L 27.9487319 8.06921203448276  L 25.31901275 8.06921203448276  L 25.31901275 8.66141156896552  L 23.6032681 8.66141156896552  L 23.6032681 3.00593394827586  C 23.6032681 2.68701393103448  23.85545535 2.41486132758621  24.17572765 2.41486132758621  L 27.9492766 2.41486132758621  L 27.9492766 0.143542189655172  Z M 25.60388085 3.95198824137931  C 25.6033317925869 3.95198493809083  25.6027827270492 3.95198328643612  25.6022336603508 3.95198328643612  C 25.445807813903 3.95198328643612  25.3189996103508 4.08316418666252  25.3189996103508 4.24498402781543  C 25.3189996103508 4.24592479927786  25.3190039902847 4.2468655652848  25.31901275 4.24780629310345  L 25.31901275 6.54335436206897  L 27.9487319 6.54335436206897  L 27.9487319 3.95142481034483  L 25.60388085 3.95142481034483  Z M 32.28221275 6.54448127586207  L 32.28221275 4.24836977586207  C 32.2822215097135 4.24742904814391  32.2822258896464 4.24648828223681  32.2822258896464 4.24554751087488  C 32.2822258896464 4.08372766972197  32.1554176860942 3.95254676949557  31.9989918396464 3.95254676949557  C 31.9984427896163 3.95254676949557  31.9978937407457 3.95254842105  31.9973447 3.95255172413793  L 29.6524936 3.95255172413793  L 29.6524936 6.54448127586207  L 32.28221275 6.54448127586207  Z " fill-rule="nonzero" fill="#ee1e1e" stroke="none" transform="matrix(1 0 0 1 321 262 )" />
  </g>
</svg>