<?xml version="1.0" encoding="utf-8"?>
<svg version="1.1" xmlns:xlink="http://www.w3.org/1999/xlink" width="15px" height="15px" xmlns="http://www.w3.org/2000/svg">
  <g transform="matrix(1 0 0 1 -122 -316 )">
    <path d="M 14.8681930693069 7.520625  C 14.8663366336634 3.399375  11.5451732673267 0.0431250000000002  7.46287128712871 0.0431249999999999  C 3.38056930693069 0.0431249999999999  0.0594059405940592 3.3975  0.0594059405940592 7.520625  C 0.0594059405940592 11.645625  3.38056930693069 15  7.46287128712871 15  C 11.5451732673267 15  14.8681930693069 11.645625  14.8681930693069 7.520625  Z M 9.15965346534654 10.599375  C 8.76237623762376 13.94625  5.88118811881188 13.55625  6.2394801980198 10.7625  C 6.91893564356436 5.445  5.90160891089109 7.05  5.75866336633663 7.291875  C 5.75495049504951 7.2975  5.74938118811881 7.29375  5.74938118811881 7.288125  C 6.40841584158416 4.344375  9.41027227722772 5.14875  9.02970297029703 7.374375  C 8.10891089108911 12.76875  8.88304455445545 11.364375  9.12623762376238 10.591875  C 9.13180693069307 10.57125  9.16336633663367 10.57875  9.15965346534654 10.599375  Z M 9.375 3.369375  C 9.54022277227723 4.130625  9.06311881188119 4.8825  8.30940594059406 5.049375  C 7.55569306930693 5.21625  6.81126237623762 4.734375  6.6460396039604 3.973125  C 6.48081683168317 3.211875  6.95792079207921 2.46  7.71163366336634 2.293125  C 8.46534653465346 2.12625  9.20977722772277 2.608125  9.375 3.369375  Z " fill-rule="nonzero" fill="#f36060" stroke="none" transform="matrix(1 0 0 1 122 316 )" />
  </g>
</svg>