<?xml version="1.0" encoding="utf-8"?>
<svg version="1.1" xmlns:xlink="http://www.w3.org/1999/xlink" width="16px" height="16px" viewBox="88 370  16 16" xmlns="http://www.w3.org/2000/svg">
  <path d="M 96 370  C 100.48 370  104 373.52  104 378  C 104 382.48  100.48 386  96 386  C 91.52 386  88 382.48  88 378  C 88 373.52  91.52 370  96 370  Z " fill-rule="nonzero" fill="#f0f0f0" stroke="none" />
  <path d="M 96 370.5  C 100.2 370.5  103.5 373.8  103.5 378  C 103.5 382.2  100.2 385.5  96 385.5  C 91.8 385.5  88.5 382.2  88.5 378  C 88.5 373.8  91.8 370.5  96 370.5  Z " stroke-width="1" stroke="#333333" fill="none" />
  <path d="M 96 382  C 93.76 382  92 380.24  92 378  C 92 375.76  93.76 374  96 374  C 98.24 374  100 375.76  100 378  C 100 380.24  98.24 382  96 382  " fill-rule="nonzero" fill="#333333" stroke="none" />
</svg>