<?xml version="1.0" encoding="utf-8"?>
<svg version="1.1" xmlns:xlink="http://www.w3.org/1999/xlink" width="16px" height="16px" viewBox="88 329  16 16" xmlns="http://www.w3.org/2000/svg">
  <path d="M 96 329  C 100.48 329  104 332.52  104 337  C 104 341.48  100.48 345  96 345  C 91.52 345  88 341.48  88 337  C 88 332.52  91.52 329  96 329  Z " fill-rule="nonzero" fill="#ffffff" stroke="none" />
  <path d="M 96 329.5  C 100.2 329.5  103.5 332.8  103.5 337  C 103.5 341.2  100.2 344.5  96 344.5  C 91.8 344.5  88.5 341.2  88.5 337  C 88.5 332.8  91.8 329.5  96 329.5  Z " stroke-width="1" stroke="#333333" fill="none" />
  <path d="M 96 341  C 93.76 341  92 339.24  92 337  C 92 334.76  93.76 333  96 333  C 98.24 333  100 334.76  100 337  C 100 339.24  98.24 341  96 341  " fill-rule="nonzero" fill="#333333" stroke="none" />
</svg>